<svg width="328" height="71" viewBox="0 0 328 71" fill="none" xmlns="http://www.w3.org/2000/svg">
<path d="M92.274 32.6378H97.7829V7.80368L92.274 6.73504V32.6378ZM78.7373 5.5264H111.307V0.0175781H78.7373V5.5264Z" fill="#59595C"/>
<path d="M211.501 5.5391H192.596V17.6381H205.216L204.135 23.1596H192.596V27.129H211.501V32.6505H187.112V27.129V23.1596V17.6381V5.5391V2.77832V0.0175781H211.501V5.5391Z" fill="#59595C"/>
<path d="M145.523 16.3522C145.498 20.1543 144.141 23.8273 141.687 26.7317C139.233 29.6361 135.838 31.5878 132.094 32.247C128.349 32.9063 124.492 32.2312 121.193 30.3394C117.895 28.4476 115.365 25.459 114.043 21.8939C112.722 18.3287 112.692 14.413 113.96 10.8285C115.228 7.24392 117.713 4.21762 120.983 2.27657C124.252 0.335517 128.099 -0.397337 131.853 0.205604C135.607 0.808545 139.031 2.70907 141.528 5.57628L137.533 9.58387C136.069 7.80479 134.07 6.54573 131.834 5.99397C129.597 5.44221 127.241 5.62727 125.118 6.52153C122.995 7.4158 121.217 8.97153 120.049 10.9574C118.881 12.9432 118.385 15.2531 118.635 17.5434C118.885 19.8337 119.867 21.9821 121.437 23.6691C123.006 25.3561 125.077 26.4916 127.344 26.9067C129.61 27.3217 131.95 26.9941 134.015 25.9727C136.08 24.9513 137.76 23.2906 138.806 21.2376H131.172L130.345 16.3522H145.472H145.523Z" fill="#59595C"/>
<path d="M171.281 23.2859L178.113 32.6368H171.319L165.213 24.2782H160.9L159.793 18.7948H166.447C168.156 18.72 169.771 17.9883 170.954 16.7522C172.137 15.5162 172.797 13.8712 172.797 12.1602C172.797 10.4491 172.137 8.80414 170.954 7.56808C169.771 6.33203 168.156 5.60026 166.447 5.52539H158.813V32.6368H153.355V0.00390625H166.396C169.176 0.0251742 171.865 0.998391 174.015 2.76146C176.165 4.52453 177.646 6.97099 178.212 9.69332C178.777 12.4157 178.392 15.2494 177.122 17.7227C175.852 20.196 173.773 22.1594 171.231 23.2859" fill="#59595C"/>
<path d="M233.001 11.1497L243.777 32.6505H249.261L233.001 0.0175781L216.729 32.6505H222.404L233.001 11.1497Z" fill="#59595C"/>
<path d="M0 48.3877H15.5213V50.6014H2.41729V57.9549H14.1346V60.1687H2.41729V67.713H15.6739V69.9267H0V48.3877Z" fill="#211E1F"/>
<path d="M22.4932 48.3877H29.9485C36.7041 48.3877 41.3986 53.0313 41.3986 59.0872C41.3986 65.1558 36.7422 69.8631 29.9485 69.8631H22.4932V48.3877ZM24.9232 50.6269V67.713H30.0121C35.4446 67.713 38.9178 64.0489 38.9178 59.2526V59.189C38.9178 54.4181 35.4446 50.665 30.0121 50.665L24.9232 50.6269Z" fill="#211E1F"/>
<path d="M47.4811 59.2131V59.1495C47.4351 57.7062 47.6794 56.2684 48.1993 54.9212C48.7193 53.5741 49.5043 52.345 50.5081 51.3068C51.5118 50.2687 52.7137 49.4426 54.0426 48.8776C55.3715 48.3125 56.8001 48.02 58.2442 48.0174C61.1869 47.8902 64.0629 48.9174 66.2593 50.8799L64.6945 52.7246C62.9281 51.0675 60.576 50.1798 58.1552 50.2565C53.397 50.2565 50.0001 54.2895 50.0001 59.0858C50.0001 64.1748 53.2825 67.9915 58.486 67.9915C60.7363 67.9808 62.9196 67.2248 64.6945 65.8415V60.4853H58.1552V58.297H67.0609V66.8846C64.6997 69.0245 61.6215 70.2004 58.435 70.1798C51.6922 70.1798 47.5193 65.2562 47.5193 59.0985" fill="#211E1F"/>
<path d="M74.4395 48.3877H89.9735V50.6014H76.8695V57.9549H88.5868V60.1687H76.8695V67.713H90.1261V69.9267H74.4395V48.3877Z" fill="#211E1F"/>
<path d="M110.724 48.3877H108.307V69.9267H110.724V48.3877Z" fill="#211E1F"/>
<path d="M118.967 48.3877H121.231L134.755 65.652V48.3877H137.122V69.9267H135.188L121.32 52.268V69.9267H118.967V48.3877Z" fill="#211E1F"/>
<path d="M143.318 48.3877H146.016L153.649 66.9369L161.321 48.3877H163.929L154.692 70.0794H152.542L143.318 48.3877Z" fill="#211E1F"/>
<path d="M170.11 48.3877H185.632V50.6014H172.54V57.9549H184.258V60.1687H172.54V67.713H185.784V69.9267H170.11V48.3877Z" fill="#211E1F"/>
<path d="M191.246 66.7852L192.747 65.004C193.704 65.9845 194.851 66.7597 196.117 67.2825C197.384 67.8052 198.744 68.0646 200.114 68.0447C203.027 68.0447 204.897 66.5053 204.897 64.3806C204.897 62.3705 203.829 61.2636 199.312 60.284C194.376 59.2026 192.111 57.5996 192.111 54.0628V53.9991C192.111 50.6531 195.088 48.1214 199.159 48.1214C201.914 48.0461 204.6 48.9882 206.704 50.7677L205.292 52.6505C203.579 51.1445 201.377 50.3126 199.096 50.3097C196.284 50.3097 194.528 51.8236 194.528 53.7956C194.528 55.8312 195.597 57.0016 200.355 57.9812C205.114 58.9609 207.353 60.7802 207.353 64.0753V64.1389C207.353 67.8284 204.287 70.2329 200.025 70.2329C196.758 70.2884 193.602 69.049 191.246 66.7852Z" fill="#211E1F"/>
<path d="M219.45 50.6395H212.211V48.3877H229.106V50.6395H221.867V69.9267H219.45V50.6395Z" fill="#211E1F"/>
<path d="M235.479 48.3877H237.935L245.759 60.1432L253.571 48.3877H256.026V69.9267H253.609V52.4843L245.785 64.0235H245.657L237.833 52.5097V69.9267H235.479V48.3877Z" fill="#211E1F"/>
<path d="M264.054 48.3877H279.588V50.6014H266.484V57.9549H278.201V60.1687H266.484V67.713H279.74V69.9267H264.054V48.3877Z" fill="#211E1F"/>
<path d="M286.562 48.3877H288.839L302.363 65.652V48.3877H304.729V69.9267H302.795L288.928 52.268V69.9267H286.562V48.3877Z" fill="#211E1F"/>
<path d="M318.343 50.6395H311.104V48.3877H328V50.6395H320.761V69.9267H318.343V50.6395Z" fill="#211E1F"/>
</svg>
