<svg width="106" height="42" viewBox="0 0 106 42" fill="none" xmlns="http://www.w3.org/2000/svg">
<path fill-rule="evenodd" clip-rule="evenodd" d="M39.7308 9.76963C39.4326 9.45388 37.4153 6.26136 37.0293 5.82282C36.6434 5.38429 36.5205 5.17379 36.275 4.89313C35.5074 3.97201 34.6091 3.16825 33.6087 2.50748C30.3793 0.375655 26.4569 -0.440194 22.6453 0.227124C20.9017 0.49918 19.2242 1.09406 17.6987 1.98126C16.2833 2.74837 15.0272 3.77828 13.9975 5.01588C13.0756 6.08638 12.2864 7.26434 11.647 8.52415C10.7418 10.5167 10.2924 12.686 10.3314 14.8741C10.3392 17.6405 11.1398 20.3468 12.6382 22.6722C14.1367 24.9977 16.2703 26.8449 18.7863 27.9951C21.5377 29.2816 24.6131 29.7087 27.6109 29.2205C30.6088 28.7324 33.3897 27.3516 35.5908 25.2586C36.3478 24.5197 37.0241 23.7024 37.6081 22.8204C38.1168 22.0661 37.6081 21.7854 36.8889 20.6628L33.5035 15.4004C33.5035 15.4004 31.7493 12.5587 31.6265 12.7516H23.2419V17.8386C27.0308 17.9263 30.8197 17.8386 34.6086 17.8386C34.1043 18.7722 33.5173 19.6587 32.8545 20.4874C31.7783 21.9159 30.3248 23.0159 28.6576 23.6636C26.9904 24.3113 25.1756 24.4809 23.4172 24.1535C21.7754 23.8386 20.2384 23.1185 18.9456 22.0585C17.6528 20.9986 16.6454 19.6325 16.0148 18.0842C15.3928 16.3828 15.267 14.5396 15.6521 12.7694C16.0372 10.9992 16.9173 9.37489 18.1899 8.08562C19.3297 6.91102 20.7385 6.03198 22.2946 5.5246C24.2235 4.9927 26.2658 5.03539 28.1709 5.6474C30.7773 6.54996 32.9253 8.43964 34.1525 10.9098C35.1349 12.5236 36.2224 14.0497 37.2223 15.6284L40.3096 20.4348C40.9235 21.3469 41.4322 22.2766 42.0637 23.1712C42.6544 24.0369 43.3431 24.8316 44.1161 25.5393C44.5007 25.9018 44.911 26.236 45.3439 26.5392C45.6246 26.697 45.8176 26.8549 46.0281 26.9952C47.7726 28.1069 49.7241 28.8541 51.765 29.1917C53.8059 29.5294 55.894 29.4505 57.9036 28.9598C59.0704 28.7112 60.1975 28.304 61.2538 27.7495C63.13 26.7252 64.7869 25.3425 66.1304 23.6799C67.3232 22.0837 66.6917 22.4169 65.4638 20.1716L64.078 18.1018C63.464 17.2247 62.9378 16.2073 62.3238 15.3302C61.7099 14.4531 61.1486 13.5761 60.5697 12.6113C58.9559 12.6113 53.3252 12.5061 51.9219 12.6113V17.6281L63.3589 17.8211C62.8511 19.3994 61.8939 20.7953 60.6048 21.838C59.3315 22.9619 57.7917 23.7409 56.1319 24.1009C54.2125 24.4953 52.2175 24.2744 50.431 23.4694C48.8737 22.8066 47.5177 21.7464 46.4987 20.395C45.4798 19.0436 44.8335 17.4483 44.6247 15.7687C44.457 14.0088 44.7716 12.2364 45.5349 10.6418C46.2982 9.04721 47.4814 7.69053 48.9573 6.7174C50.1668 5.94891 51.5276 5.44937 52.947 5.25265C54.3664 5.05593 55.8114 5.16663 57.1843 5.57722C57.9831 5.81532 58.7448 6.16365 59.4473 6.61215C60.0951 7.02284 60.685 7.51839 61.2014 8.08562C62.5345 9.38368 65.0956 14.0497 66.4638 15.9442C67.4286 17.2247 69.5511 20.6979 70.6386 22.3994C71.1592 23.2233 71.7459 24.0035 72.3928 24.7324C73.7358 26.236 75.3869 27.4326 77.234 28.2407C79.8925 29.387 82.8228 29.7515 85.6811 29.2917C88.5394 28.8319 91.2074 27.5667 93.3722 25.6445C94.1643 24.9539 94.85 24.15 95.407 23.2589C95.407 23.101 92.3373 20.1541 91.8988 19.5927C90.4995 21.6398 88.4747 23.1784 86.1276 23.9781C84.762 24.3674 83.3288 24.4592 81.9247 24.2474C80.5206 24.0355 79.1783 23.525 77.9884 22.7502C76.3829 21.6363 75.1245 20.0919 74.3574 18.2947C73.8945 17.2149 73.6673 16.0487 73.6908 14.8741C73.6699 12.7673 74.3468 10.7127 75.6161 9.03099C76.8853 7.34924 78.6755 6.13484 80.7074 5.57722C82.9796 4.95225 85.3984 5.1383 87.5483 6.10344C89.3175 6.95669 90.8081 8.29503 91.8461 9.96256C92.5301 9.4373 93.1642 8.85011 93.7405 8.20842C94.363 7.58832 94.9487 6.93233 95.4946 6.2438C94.7863 5.20643 93.9362 4.27347 92.9688 3.47223C91.2752 2.08338 89.2996 1.07996 87.1792 0.531668C85.0587 -0.01662 82.8443 -0.0966122 80.6898 0.297251C78.0028 0.743901 75.5039 1.96289 73.4979 3.80552C72.5781 4.65538 71.7599 5.60902 71.0596 6.64727C70.6737 7.17351 70.3054 7.66466 69.9721 8.22598C69.6638 8.79221 69.3179 9.33719 68.937 9.85731C68.0393 8.73725 67.2077 7.56584 66.4462 6.34904C66.0124 5.76587 65.5437 5.20936 65.0428 4.68259C64.0224 3.60839 62.8383 2.70256 61.5346 1.99877C61.2364 1.84089 60.8506 1.59534 60.5524 1.47255L59.4297 1.03401C57.7347 0.449583 55.9597 0.130068 54.1673 0.0867635C51.6114 0.124826 49.1 0.761662 46.8349 1.94614C44.0095 3.64366 41.6899 6.0663 40.1166 8.96269L39.8359 9.41878C39.678 9.66436 39.6781 9.73451 39.4852 9.83976" fill="#8F8183"/>
<path d="M101.547 35.3104H102.512L104.827 38.8186V35.3104H105.827V40.5728H104.862L102.564 37.0645V40.5728H101.547V35.3104ZM97.7757 36.1523C97.5427 36.147 97.3111 36.1912 97.0965 36.2819C96.8818 36.3726 96.6887 36.5078 96.5301 36.6786C96.3611 36.8487 96.2289 37.0516 96.1414 37.2749C96.054 37.4981 96.0131 37.737 96.0215 37.9766C96.018 38.2416 96.0744 38.504 96.1868 38.744C96.2993 38.984 96.4647 39.1955 96.6706 39.3624C96.9862 39.6239 97.3834 39.7666 97.7932 39.7658C98.0236 39.7709 98.2523 39.7265 98.4641 39.6357C98.6759 39.545 98.8658 39.4099 99.021 39.2396C99.1879 39.0715 99.319 38.8715 99.4065 38.6514C99.4939 38.4313 99.5358 38.1958 99.5298 37.9591C99.5358 37.7223 99.4939 37.4869 99.4065 37.2668C99.319 37.0467 99.1879 36.8466 99.021 36.6786C98.8624 36.5078 98.6693 36.3726 98.4547 36.2819C98.24 36.1912 98.0087 36.147 97.7757 36.1523ZM97.7757 35.17C98.1393 35.1674 98.4995 35.2392 98.8343 35.381C99.1692 35.5227 99.4716 35.7315 99.7227 35.9944C99.9936 36.2469 100.207 36.5545 100.349 36.8963C100.492 37.2382 100.559 37.6065 100.547 37.9766C100.554 38.3419 100.487 38.7048 100.348 39.0428C100.209 39.3807 100.002 39.6865 99.7403 39.9412C99.2119 40.4619 98.4999 40.7538 97.7581 40.7538C97.0163 40.7538 96.3043 40.4619 95.7759 39.9412C95.3528 39.4999 95.0833 38.9338 95.0074 38.327C94.9316 37.7203 95.0534 37.1053 95.355 36.5733C95.5999 36.149 95.953 35.7971 96.3783 35.5537C96.8035 35.3103 97.2857 35.1839 97.7757 35.1875M93.0921 35.3279H94.1096V40.5903H93.0921V35.3279ZM89.5838 35.3279H92.5308V36.3102H91.566V40.6254H90.496V36.3102H89.5487L89.5838 35.3279ZM86.7245 36.7312L86.0053 38.4853H87.4613L86.7245 36.7312ZM86.216 35.3279H87.2509L89.3031 40.5903H88.2506L87.8297 39.5027H85.637L85.1984 40.5903H84.146L86.216 35.3279ZM81.3394 37.3978H81.6551C81.8901 37.4207 82.1268 37.3782 82.3392 37.275C82.4217 37.1699 82.4666 37.0402 82.4666 36.9066C82.4666 36.773 82.4217 36.6433 82.3392 36.5382C82.2762 36.457 82.1908 36.396 82.0936 36.3628C81.9074 36.3371 81.7186 36.3371 81.5324 36.3628H81.2516L81.3394 37.3978ZM80.3219 35.3279H81.4094C81.8364 35.3064 82.264 35.3599 82.6726 35.4857C82.9223 35.5844 83.1321 35.7634 83.2689 35.9944C83.4257 36.2532 83.5049 36.5515 83.497 36.8539C83.5149 37.1655 83.4285 37.4741 83.2514 37.731C83.0626 37.9863 82.7989 38.1765 82.497 38.2748L83.7601 40.6254H82.6375L81.4446 38.3801H81.3394V40.6254H80.3219V35.3279ZM76.498 36.1699C76.265 36.1646 76.0335 36.2088 75.8188 36.2995C75.6041 36.3902 75.4112 36.5253 75.2526 36.6961C75.0836 36.8662 74.9513 37.0692 74.8638 37.2924C74.7763 37.5157 74.7354 37.7545 74.7439 37.9942C74.7382 38.2578 74.7919 38.5192 74.9012 38.7591C75.0106 38.9991 75.1727 39.2112 75.3753 39.3799C75.6955 39.6453 76.0997 39.7883 76.5156 39.7834C76.7456 39.7862 76.9737 39.7408 77.1851 39.6502C77.3966 39.5596 77.5867 39.4257 77.7434 39.2572C77.9102 39.0891 78.0414 38.889 78.1288 38.6689C78.2162 38.4488 78.2582 38.2133 78.2521 37.9766C78.2582 37.7399 78.2162 37.5044 78.1288 37.2843C78.0414 37.0643 77.9102 36.8641 77.7434 36.6961C77.5809 36.5303 77.3871 36.3985 77.1734 36.3082C76.9596 36.2179 76.7301 36.1708 76.498 36.1699ZM76.498 35.1875C77.2348 35.2013 77.9371 35.5024 78.4549 36.0268C78.9727 36.5512 79.265 37.2572 79.2695 37.9942C79.2718 38.3588 79.2017 38.7202 79.0632 39.0575C78.9248 39.3948 78.7207 39.7013 78.4628 39.9591C78.205 40.2169 77.8987 40.421 77.5614 40.5595C77.224 40.6979 76.8626 40.768 76.498 40.7657C76.1256 40.7756 75.7551 40.7074 75.4107 40.5654C75.0662 40.4234 74.7555 40.2107 74.4983 39.9412C73.9807 39.4184 73.6908 38.7123 73.6914 37.9766C73.6836 37.4816 73.8175 36.9947 74.0773 36.5733C74.3182 36.1485 74.6697 35.7968 75.0946 35.5559C75.5217 35.3115 76.0059 35.1844 76.498 35.1875ZM70.7971 37.3978H71.1302C71.3047 37.423 71.4821 37.423 71.6566 37.3978C71.7514 37.36 71.8357 37.2998 71.9022 37.2224C71.9297 37.1189 71.9297 37.0101 71.9022 36.9066C71.9065 36.8178 71.8856 36.7296 71.8422 36.6521C71.7988 36.5745 71.7345 36.5108 71.6566 36.4681C71.4459 36.3806 71.2174 36.3445 70.99 36.3628H70.7093L70.7971 37.3978ZM69.7795 35.3279H70.8673C71.2943 35.3064 71.7216 35.3599 72.1302 35.4857C72.382 35.5887 72.5962 35.7662 72.7441 35.9944C72.8927 36.2566 72.9712 36.5526 72.9722 36.8539C72.988 37.1857 72.8857 37.5123 72.6833 37.7757C72.481 38.0391 72.1917 38.2221 71.8671 38.2924C71.5151 38.3635 71.1559 38.3929 70.7971 38.3801V40.6254H69.7795V35.3279ZM66.5344 37.3978H66.8678C67.0972 37.4222 67.3287 37.3795 67.5344 37.275C67.6012 37.2284 67.6542 37.1648 67.6881 37.0908C67.7221 37.0167 67.7357 36.935 67.7273 36.8539C67.7548 36.7505 67.7548 36.6417 67.7273 36.5382C67.6608 36.4608 67.5765 36.4006 67.4817 36.3628C67.2955 36.3371 67.1067 36.3371 66.9205 36.3628H66.6222L66.5344 37.3978ZM65.5346 35.3279H66.6046C67.0317 35.303 67.4597 35.3565 67.8676 35.4857C68.1224 35.5834 68.3381 35.7622 68.4815 35.9944C68.6383 36.2532 68.7174 36.5515 68.7095 36.8539C68.7289 37.1716 68.6383 37.4862 68.453 37.745C68.2677 38.0037 67.9991 38.1908 67.6922 38.2748L68.9551 40.6254H67.85L66.6398 38.3801H66.5344V40.6254H65.5346V35.3279ZM61.7105 36.1699C61.4774 36.1634 61.2457 36.2071 61.0309 36.2979C60.8161 36.3886 60.6231 36.5244 60.4652 36.6961C60.2962 36.8662 60.1638 37.0692 60.0763 37.2924C59.9888 37.5157 59.948 37.7545 59.9564 37.9942C59.9507 38.2578 60.0047 38.5192 60.114 38.7591C60.2233 38.9991 60.3852 39.2112 60.5879 39.3799C60.9081 39.6453 61.3122 39.7883 61.7281 39.7834C61.9582 39.7862 62.1862 39.7408 62.3977 39.6502C62.6091 39.5596 62.7995 39.4257 62.9561 39.2572C63.123 39.0891 63.2539 38.889 63.3413 38.6689C63.4288 38.4488 63.4707 38.2133 63.4647 37.9766C63.4707 37.7399 63.4288 37.5044 63.3413 37.2843C63.2539 37.0643 63.123 36.8641 62.9561 36.6961C62.7937 36.5303 62.5999 36.3985 62.3861 36.3082C62.1723 36.2179 61.9426 36.1708 61.7105 36.1699ZM61.7105 35.1875C62.0769 35.1836 62.4403 35.2546 62.7782 35.3964C63.1161 35.5382 63.4213 35.7477 63.6752 36.012C63.9577 36.2654 64.1857 36.5738 64.345 36.9183C64.5042 37.2629 64.5914 37.6363 64.6013 38.0157C64.6111 38.3951 64.5434 38.7725 64.4023 39.1249C64.2613 39.4772 64.0497 39.7971 63.7807 40.0649C63.5118 40.3327 63.1911 40.5427 62.8381 40.6822C62.4852 40.8217 62.1072 40.8877 61.7279 40.8761C61.3485 40.8646 60.9756 40.7756 60.6318 40.6149C60.2879 40.4541 59.9805 40.2249 59.7284 39.9412C59.4689 39.6847 59.2638 39.3785 59.1252 39.041C58.9865 38.7035 58.9173 38.3415 58.9215 37.9766C58.9215 37.2369 59.2154 36.5275 59.7384 36.0044C60.2615 35.4814 60.9708 35.1875 61.7105 35.1875ZM58.2023 36.2575L57.5006 36.9241C57.294 36.6898 57.0405 36.5016 56.7565 36.3717C56.4724 36.2417 56.1641 36.173 55.8518 36.1699C55.6121 36.1614 55.3733 36.2022 55.1501 36.2897C54.9268 36.3772 54.7238 36.5096 54.5537 36.6786C54.3837 36.8452 54.2494 37.0446 54.1589 37.2647C54.0684 37.4848 54.0237 37.7211 54.0274 37.9591C54.0257 38.2908 54.1104 38.6172 54.273 38.9063C54.4185 39.1835 54.6449 39.4098 54.922 39.5553C55.2125 39.7126 55.5391 39.7912 55.8693 39.7834C56.152 39.7871 56.4324 39.7334 56.6937 39.6255C56.9899 39.4664 57.2616 39.2655 57.5006 39.0291L58.1847 39.7483C57.8619 40.0779 57.4814 40.3454 57.062 40.5376C56.677 40.6906 56.2661 40.7681 55.8518 40.7657C55.4777 40.7802 55.1047 40.7178 54.7557 40.5824C54.4066 40.447 54.0891 40.2413 53.8227 39.9782C53.5563 39.7152 53.3469 39.4002 53.2071 39.0529C53.0673 38.7056 53.0002 38.3333 53.0101 37.9591C53.0008 37.4662 53.1282 36.9805 53.3784 36.5558C53.6366 36.143 53.9921 35.7997 54.4135 35.5559C54.8603 35.3131 55.3608 35.1864 55.8693 35.1875C56.3118 35.1844 56.7493 35.2803 57.1498 35.4682C57.5596 35.6418 57.9208 35.9128 58.2023 36.2575ZM47.8355 36.7312L47.0987 38.4853H48.5545L47.8355 36.7312ZM47.3092 35.3279H48.344L50.3964 40.5903H49.344L48.923 39.5027H46.7304L46.3094 40.5903H45.2392L47.3092 35.3279ZM44.3621 36.1874L43.6431 36.8891C43.4447 36.6656 43.2017 36.4862 42.9298 36.3623C42.6579 36.2384 42.3631 36.1729 42.0643 36.1699C41.8183 36.165 41.5739 36.209 41.345 36.2994C41.1162 36.3897 40.9075 36.5245 40.7311 36.6961C40.5559 36.8602 40.4162 37.0585 40.3207 37.2788C40.2251 37.499 40.1759 37.7365 40.1759 37.9766C40.1759 38.2167 40.2251 38.4542 40.3207 38.6745C40.4162 38.8947 40.5559 39.0931 40.7311 39.2572C41.0974 39.6121 41.5894 39.8076 42.0994 39.8009C42.4126 39.8062 42.7215 39.7274 42.994 39.5729C43.2557 39.4133 43.4587 39.1733 43.5728 38.8888H42.0292V37.9416H44.7131V38.152C44.7099 38.6135 44.5869 39.0662 44.3563 39.4659C44.1257 39.8656 43.7953 40.1986 43.3975 40.4324C42.9823 40.6551 42.5178 40.7697 42.0467 40.7657C41.5261 40.7752 41.0121 40.6482 40.5558 40.3973C40.1181 40.1676 39.7579 39.8136 39.5207 39.3799C39.2607 38.9457 39.1271 38.4476 39.1348 37.9416C39.1468 37.2908 39.3964 36.6669 39.8365 36.1874C40.1096 35.8835 40.4456 35.6428 40.8213 35.4822C41.197 35.3216 41.6032 35.245 42.0116 35.2577C42.4636 35.2534 42.9117 35.3429 43.3272 35.5208C43.7075 35.6953 44.0479 35.946 44.3272 36.2575M33.8024 35.398H34.7846L37.0826 38.9063V35.398H38.0999V40.6604H37.1351L34.8197 37.1522V40.6604H33.8024V35.398ZM30.4344 36.8013L29.7151 38.5555H31.1536L30.4344 36.8013ZM29.9256 35.398H30.9431L33.0129 40.6604H31.9429L31.5395 39.5729H29.3293L28.9083 40.6604H27.8558L29.9256 35.398ZM26.9788 36.2575L26.2595 36.9592C26.0585 36.7345 25.8126 36.5543 25.5377 36.4305C25.2627 36.3066 24.9648 36.2417 24.6632 36.24C24.4194 36.2314 24.1765 36.2738 23.9499 36.3644C23.7234 36.455 23.5182 36.5919 23.3476 36.7663C23.1766 36.9293 23.0402 37.1252 22.9467 37.3423C22.8533 37.5593 22.8048 37.793 22.8039 38.0292C22.8023 38.2727 22.8512 38.5139 22.9478 38.7374C23.0445 38.9608 23.1866 39.1617 23.3652 39.3273C23.7314 39.6823 24.2234 39.8778 24.7334 39.8711C25.0407 39.8732 25.3432 39.7946 25.6105 39.6431C25.8734 39.4799 26.0811 39.2416 26.2068 38.9589H24.6456V38.0117H27.3471V38.2222C27.345 38.6892 27.2244 39.1479 26.9963 39.5553C26.7695 39.949 26.4427 40.2758 26.049 40.5026C25.6284 40.7274 25.1577 40.8421 24.6808 40.8359C24.1601 40.8454 23.6461 40.7184 23.1898 40.4675C22.7557 40.2329 22.3969 39.8801 22.1549 39.4501C21.9084 39.0111 21.7812 38.5151 21.7864 38.0117C21.7899 37.3593 22.0407 36.7324 22.4881 36.2575C22.7604 35.9527 23.0963 35.7114 23.4722 35.5507C23.8481 35.3901 24.2547 35.314 24.6632 35.3279C25.1094 35.3254 25.5512 35.415 25.9612 35.591C26.3497 35.7601 26.6969 36.0115 26.9788 36.3277M16.6293 35.4682H17.6467V39.8009H19.1552V40.7657H16.8223L16.6293 35.4682ZM12.7701 35.4682H15.6996V36.4505H13.7876V37.3978H15.6996V38.3801H13.7876V39.7834H15.6996V40.7657H12.7701V35.4682ZM9.01644 36.3102C8.78329 36.3038 8.55142 36.3474 8.33658 36.4382C8.12174 36.529 7.92877 36.6648 7.77086 36.8364C7.60184 37.0065 7.46949 37.2095 7.382 37.4327C7.2945 37.656 7.25387 37.8948 7.2623 38.1345C7.25665 38.3981 7.31036 38.6595 7.41969 38.8995C7.52902 39.1394 7.69113 39.3516 7.89376 39.5203C8.21398 39.7857 8.61812 39.9286 9.034 39.9237C9.49668 39.9171 9.93794 39.728 10.2618 39.3975C10.4286 39.2294 10.5598 39.0293 10.6472 38.8093C10.7347 38.5892 10.7766 38.3537 10.7706 38.1169C10.7766 37.8802 10.7347 37.6447 10.6472 37.4247C10.5598 37.2046 10.4286 37.0045 10.2618 36.8364C10.0993 36.6707 9.90558 36.5388 9.6918 36.4485C9.47801 36.3582 9.24852 36.3111 9.01644 36.3102ZM9.01644 35.3279C9.38285 35.3239 9.74619 35.395 10.0841 35.5368C10.422 35.6786 10.7272 35.888 10.9811 36.1523C11.2636 36.4057 11.4914 36.7141 11.6506 37.0587C11.8099 37.4032 11.8971 37.7766 11.907 38.156C11.9168 38.5354 11.8491 38.9129 11.708 39.2652C11.567 39.6176 11.3556 39.9374 11.0866 40.2052C10.8177 40.473 10.4968 40.6831 10.1438 40.8225C9.79084 40.962 9.41315 41.028 9.03378 41.0164C8.65442 41.0049 8.28127 40.916 7.93745 40.7553C7.59363 40.5945 7.2864 40.3653 7.03426 40.0816C6.77481 39.825 6.56968 39.5188 6.43106 39.1813C6.29243 38.8438 6.22299 38.4818 6.22721 38.1169C6.22721 37.3772 6.52105 36.6678 7.04411 36.1448C7.56716 35.6217 8.27673 35.3279 9.01644 35.3279ZM5.19233 36.3277L4.47307 37.0294C4.27203 36.8046 4.02619 36.6245 3.75125 36.5006C3.4763 36.3767 3.17852 36.3118 2.87696 36.3102C2.63313 36.3016 2.39002 36.344 2.16349 36.4346C1.93696 36.5252 1.73199 36.6621 1.56136 36.8364C1.39033 36.9995 1.25396 37.1954 1.16051 37.4124C1.06707 37.6294 1.01838 37.8631 1.01747 38.0994C1.01583 38.3429 1.06494 38.584 1.16158 38.8075C1.25822 39.031 1.40039 39.2319 1.57892 39.3975C1.94519 39.7524 2.43696 39.9479 2.94698 39.9412C3.25426 39.9434 3.55671 39.8647 3.82405 39.7132C4.08691 39.5501 4.29485 39.3118 4.42061 39.0291H2.8594V38.0819H5.56063V38.2924C5.55859 38.7593 5.43795 39.2181 5.20989 39.6255C4.9831 40.0192 4.65626 40.346 4.26258 40.5728C3.84197 40.7976 3.37142 40.9123 2.89452 40.9061C2.37388 40.9155 1.85965 40.7885 1.40333 40.5376C0.969228 40.303 0.610474 39.9503 0.368453 39.5203C0.121913 39.0813 -0.00503891 38.5853 0.000153092 38.0819C0.00369989 37.4294 0.254472 36.8026 0.70185 36.3277C0.974128 36.0228 1.30989 35.7815 1.68577 35.6209C2.06164 35.4602 2.46843 35.3841 2.87696 35.398C3.32314 35.3956 3.76501 35.4851 4.17501 35.6611C4.56342 35.8303 4.91046 36.0817 5.19233 36.3979" fill="#8F8183"/>
</svg>
