<svg width="128" height="45" viewBox="0 0 128 45" fill="none" xmlns="http://www.w3.org/2000/svg">
<path d="M36.5726 21.752L19.1891 27.1898L1.78806 21.752L0.367188 23.5236L16.4702 28.5931L19.1891 29.4526L21.908 28.5931L37.9934 23.5236L36.5726 21.752Z" fill="#8F8183"/>
<path d="M35.5564 20.4708L34.118 18.6641L19.1903 23.3301L4.24505 18.6641L2.80664 20.4708L19.1903 25.5929L35.5564 20.4708Z" fill="#8F8183"/>
<path d="M33.0474 17.3302L31.5914 15.5234L19.1896 19.4001L6.77039 15.5234L5.31445 17.3302L19.1896 21.6629L33.0474 17.3302Z" fill="#8F8183"/>
<path d="M28.0663 11.0861L26.6104 9.2793L19.1904 11.6123L11.7529 9.2793L10.3145 11.0861L19.1904 13.8751L28.0663 11.0861Z" fill="#8F8183"/>
<path d="M25.5923 8.0177L24.1539 6.21094L19.1897 7.75458L14.2255 6.21094L12.7695 8.0177L19.1897 10.0174L25.5923 8.0177Z" fill="#8F8183"/>
<path d="M23.0832 4.87707L21.6273 3.07031L19.189 3.82459L16.7333 3.07031L15.2773 4.87707L19.189 6.08743L23.0832 4.87707Z" fill="#8F8183"/>
<path d="M20.6287 1.78922L19.1903 0L17.752 1.78922L19.1903 2.24529L20.6287 1.78922Z" fill="#8F8183"/>
<path d="M19.189 17.8208L30.5909 14.2599L29.1349 12.4531L19.189 15.5579L9.22549 12.4531L7.78711 14.2599L19.189 17.8208Z" fill="#8F8183"/>
<path fill-rule="evenodd" clip-rule="evenodd" d="M127.244 23.9967C127.253 24.2478 127.165 24.4926 126.999 24.6808C126.927 24.7697 126.836 24.8411 126.733 24.8897C126.629 24.9383 126.516 24.9629 126.402 24.9615C126.228 24.961 126.059 24.9044 125.92 24.8001C125.781 24.6958 125.68 24.5494 125.63 24.3826L122.438 15.6119C122.421 15.5684 122.393 15.5304 122.356 15.5024C122.318 15.4745 122.274 15.4577 122.227 15.4541H121.491C121.385 15.4541 121.35 15.4541 121.35 15.647V24.0318C121.359 24.2828 121.271 24.5276 121.105 24.7159C121.035 24.8068 120.944 24.8797 120.841 24.9286C120.737 24.9774 120.623 25.0007 120.508 24.9966C120.394 24.9967 120.282 24.9716 120.179 24.9231C120.075 24.8746 119.984 24.8038 119.912 24.7159C119.752 24.525 119.67 24.2805 119.684 24.0318V4.9117C119.673 4.65796 119.754 4.40877 119.912 4.21006C119.988 4.12713 120.08 4.06088 120.182 4.01558C120.285 3.97027 120.396 3.94689 120.508 3.94692C120.621 3.94339 120.733 3.9652 120.836 4.01073C120.94 4.05627 121.031 4.12439 121.105 4.21006C121.268 4.40708 121.355 4.65598 121.35 4.9117V13.2965C121.35 13.4193 121.35 13.4894 121.491 13.4894H122.227C122.227 13.4894 122.385 13.4894 122.438 13.314L125.63 4.54332C125.68 4.37657 125.781 4.23016 125.92 4.12585C126.059 4.02155 126.228 3.96495 126.402 3.96448C126.515 3.96334 126.626 3.98621 126.729 4.03158C126.832 4.07696 126.924 4.14379 126.999 4.22759C127.162 4.42461 127.249 4.67352 127.244 4.92923C127.271 5.05651 127.271 5.18787 127.244 5.31515L123.946 14.3139C123.938 14.3662 123.938 14.4195 123.946 14.4717C123.937 14.5357 123.937 14.6007 123.946 14.6647L127.244 23.6634C127.272 23.7905 127.272 23.9222 127.244 24.0493M113.615 18.4361L112.211 10.332C112.211 10.2443 112.211 10.2092 112.106 10.2092C112.001 10.2092 112.106 10.2092 112.106 10.332L110.615 18.4361C110.615 18.5589 110.615 18.6291 110.738 18.6291H113.58C113.685 18.6291 113.737 18.6291 113.702 18.4361M116.316 23.8564C116.357 24.1145 116.314 24.3791 116.193 24.6106C116.143 24.7108 116.071 24.7988 115.983 24.8685C115.895 24.9382 115.793 24.9879 115.684 25.0141C115.578 25.0431 115.467 25.0455 115.36 25.021C115.253 24.9965 115.153 24.946 115.071 24.8738C114.884 24.7177 114.759 24.4998 114.72 24.2598L114.106 20.7515C114.106 20.6112 114 20.5586 113.913 20.5586H110.404C110.299 20.5586 110.247 20.5586 110.229 20.7515L109.598 24.2598C109.554 24.4978 109.423 24.7106 109.229 24.8562C109.146 24.9284 109.047 24.979 108.94 25.0035C108.833 25.028 108.721 25.0256 108.615 24.9966C108.505 24.9673 108.403 24.9145 108.315 24.8418C108.227 24.7691 108.156 24.6783 108.107 24.5756C107.987 24.3499 107.943 24.0912 107.984 23.8388L111.492 4.71875C111.597 4.19251 111.86 3.94692 112.316 3.94692C112.772 3.94692 113.036 4.19251 113.123 4.71875L116.316 23.8564ZM102.809 21.4532V7.54291C102.824 7.13376 102.687 6.73359 102.423 6.42026C102.312 6.27371 102.169 6.15472 102.005 6.07257C101.841 5.99042 101.66 5.94731 101.476 5.94664H98.7394C98.6342 5.94664 98.5991 5.94664 98.5991 6.13959V22.8741C98.5991 23.0144 98.5991 23.067 98.7394 23.067H101.476C101.658 23.0659 101.837 23.0243 102.001 22.9455C102.165 22.8666 102.309 22.7523 102.423 22.6109C102.682 22.2883 102.819 21.8844 102.809 21.4708M104.563 21.4708C104.578 22.3928 104.26 23.2894 103.669 23.9967C103.416 24.3187 103.094 24.5791 102.726 24.7584C102.359 24.9376 101.955 25.0311 101.546 25.0316H97.8274C97.7135 25.0318 97.6008 25.0067 97.4977 24.9582C97.3946 24.9096 97.3034 24.8389 97.2309 24.751C97.0709 24.5601 96.9894 24.3156 97.0028 24.0669V4.94679C96.9917 4.69305 97.0727 4.44383 97.2309 4.24512C97.3065 4.1622 97.3986 4.09597 97.5013 4.05067C97.604 4.00536 97.7152 3.98198 97.8274 3.98201H101.546C101.957 3.982 102.363 4.077 102.731 4.25958C103.099 4.44215 103.42 4.70736 103.669 5.03451C104.263 5.73321 104.582 6.62553 104.563 7.54291V21.4708ZM93.5472 24.0669C93.5472 24.6282 93.3191 24.9439 92.8455 25.0316C92.3719 25.1194 92.0912 24.9089 91.9333 24.4002L87.6358 11.0512C87.6358 10.9635 87.6359 10.9459 87.4955 10.9635C87.3552 10.981 87.4955 10.9635 87.4955 11.1038V23.9441C87.5042 24.1951 87.4163 24.44 87.2499 24.6282C87.1783 24.7171 87.0873 24.7885 86.984 24.8371C86.8807 24.8857 86.7676 24.9103 86.6534 24.9088C86.5417 24.9102 86.4314 24.8856 86.3309 24.8368C86.2304 24.7881 86.1427 24.7167 86.0746 24.6282C85.989 24.5371 85.9231 24.4293 85.8808 24.3116C85.8386 24.194 85.8208 24.0689 85.829 23.9441V4.82399C85.829 4.26267 86.057 3.94692 86.5131 3.85921C86.9692 3.7715 87.2674 3.982 87.4253 4.4907L91.5124 17.7169C91.5317 17.7342 91.5567 17.7437 91.5826 17.7437C91.6085 17.7437 91.6335 17.7342 91.6528 17.7169C91.6637 17.6951 91.6691 17.6711 91.6691 17.6467C91.6691 17.6224 91.6637 17.5984 91.6528 17.5766V4.73628C91.6417 4.48254 91.7227 4.23334 91.8809 4.03463C91.9565 3.95171 92.0486 3.88549 92.1513 3.84018C92.254 3.79487 92.365 3.77149 92.4772 3.77153C92.5896 3.77038 92.7009 3.79325 92.8038 3.83863C92.9066 3.884 92.9986 3.95084 93.0736 4.03463C93.2367 4.23165 93.3238 4.48056 93.3192 4.73628L93.5472 24.0669ZM79.9176 18.4536L78.5144 10.3495C78.5144 10.2618 78.5143 10.2267 78.409 10.2267C78.3038 10.2267 78.3212 10.2267 78.3212 10.3495L76.8303 18.4536C76.8303 18.5764 76.8304 18.6466 76.9532 18.6466H79.7949C79.9001 18.6466 79.9526 18.6466 79.9176 18.4536ZM82.5312 23.8739C82.5813 24.1319 82.5378 24.3994 82.4085 24.6282C82.3609 24.7271 82.2923 24.8145 82.2074 24.8842C82.1226 24.9539 82.0236 25.0042 81.9173 25.0316C81.8088 25.0638 81.694 25.0678 81.5835 25.0432C81.473 25.0187 81.3705 24.9664 81.2858 24.8913C81.0992 24.7378 80.9795 24.5175 80.9524 24.2774L80.321 20.7691C80.321 20.6287 80.2158 20.5761 80.128 20.5761H76.6198C76.497 20.5761 76.4444 20.5761 76.4268 20.7691L75.7954 24.2774C75.7517 24.5153 75.6203 24.7282 75.4271 24.8738C75.3442 24.946 75.2447 24.9965 75.1376 25.021C75.0305 25.0455 74.9189 25.0431 74.813 25.0141C74.7028 24.9848 74.6004 24.932 74.5125 24.8594C74.4247 24.7867 74.3538 24.6959 74.3044 24.5931C74.1845 24.3674 74.1412 24.1088 74.1815 23.8564L77.6898 4.73628C77.795 4.21004 78.0583 3.96448 78.5144 3.96448C78.9705 3.96448 79.2335 4.21004 79.3212 4.73628L82.5312 23.8739ZM70.7083 24.0669C70.717 24.3179 70.6291 24.5627 70.4627 24.751C70.3911 24.8398 70.3001 24.9113 70.1968 24.9599C70.0935 25.0085 69.9806 25.0331 69.8664 25.0316C69.7524 25.0318 69.6398 25.0067 69.5366 24.9582C69.4335 24.9096 69.3426 24.8389 69.27 24.751C69.1037 24.5627 69.0158 24.3179 69.0244 24.0669V15.7172C69.0244 15.5769 69.0243 15.5067 68.9015 15.5067H64.832C64.7268 15.5067 64.6918 15.5067 64.6918 15.7172V24.0669C64.7004 24.3179 64.6125 24.5627 64.4462 24.751C64.3745 24.8398 64.2835 24.9113 64.1802 24.9599C64.0769 25.0085 63.9638 25.0331 63.8496 25.0316C63.7356 25.0318 63.6232 25.0067 63.5201 24.9582C63.417 24.9096 63.3258 24.8389 63.2533 24.751C63.0933 24.5601 63.0118 24.3156 63.0252 24.0669V4.94679C63.0141 4.69305 63.0951 4.44383 63.2533 4.24512C63.3289 4.1622 63.421 4.09597 63.5237 4.05067C63.6264 4.00536 63.7374 3.98198 63.8496 3.98201C63.962 3.98087 64.0735 4.00376 64.1764 4.04914C64.2792 4.09452 64.3712 4.16132 64.4462 4.24512C64.6093 4.44214 64.6964 4.69107 64.6918 4.94679V13.3491C64.6918 13.4894 64.6917 13.5596 64.832 13.5596H68.7788C68.7788 13.5596 68.9015 13.5596 68.9015 13.3491V4.94679C68.8969 4.69107 68.9841 4.44214 69.1471 4.24512C69.2228 4.1622 69.3149 4.09597 69.4176 4.05067C69.5203 4.00536 69.6315 3.98198 69.7437 3.98201C69.8561 3.98087 69.9674 4.00376 70.0702 4.04914C70.1731 4.09452 70.2651 4.16132 70.34 4.24512C70.5031 4.44214 70.5903 4.69107 70.5856 4.94679L70.7083 24.0669ZM59.5696 21.4006C59.5831 22.3194 59.2725 23.2137 58.6926 23.9265C58.4349 24.247 58.1092 24.5061 57.739 24.6851C57.3689 24.8641 56.9637 24.9585 56.5526 24.9615H55.0265C54.6147 24.9623 54.2079 24.8696 53.8372 24.6903C53.4665 24.511 53.1413 24.2498 52.8863 23.9265C52.2995 23.2175 51.9881 22.3207 52.0092 21.4006V7.54291C51.9843 6.62754 52.2964 5.73492 52.8863 5.03451C53.1377 4.706 53.4619 4.44006 53.8331 4.25749C54.2044 4.07491 54.6128 3.98064 55.0265 3.98201H56.5526C56.9656 3.98457 57.3725 4.08059 57.7431 4.26287C58.1137 4.44514 58.4384 4.70895 58.6926 5.03451C59.274 5.73968 59.585 6.62906 59.5696 7.54291V10.3144C59.5743 10.5702 59.4871 10.8191 59.324 11.0161C59.2532 11.1072 59.163 11.1813 59.0598 11.2329C58.9566 11.2845 58.8431 11.3123 58.7277 11.3143C58.6125 11.3111 58.4994 11.2828 58.3964 11.2313C58.2934 11.1797 58.203 11.1063 58.1313 11.0161C57.9731 10.8174 57.8921 10.5682 57.9033 10.3144V7.54291C57.9041 7.13305 57.7612 6.73585 57.4997 6.42026C57.3889 6.27371 57.246 6.15472 57.0817 6.07257C56.9174 5.99042 56.7363 5.94731 56.5526 5.94664H55.0265C54.84 5.94595 54.6559 5.98833 54.4886 6.07048C54.3212 6.15264 54.1751 6.27235 54.0616 6.42026C53.7981 6.73359 53.6605 7.13376 53.6758 7.54291V21.4708C53.6659 21.8844 53.8025 22.2883 54.0616 22.6109C54.1786 22.7537 54.3258 22.8687 54.4927 22.9475C54.6595 23.0264 54.8419 23.0672 55.0265 23.067H56.5526C56.7344 23.0659 56.9136 23.0243 57.0774 22.9455C57.2412 22.8666 57.3854 22.7523 57.4997 22.6109C57.765 22.2907 57.9082 21.8866 57.9033 21.4708V18.6992C57.8921 18.4455 57.9731 18.1963 58.1313 17.9976C58.203 17.9074 58.2934 17.8339 58.3964 17.7824C58.4994 17.7309 58.6125 17.7025 58.7277 17.6993C58.8431 17.7013 58.9566 17.7291 59.0598 17.7807C59.163 17.8323 59.2532 17.9064 59.324 17.9976C59.4871 18.1946 59.5743 18.4435 59.5696 18.6992V21.4006Z" fill="#8F8183"/>
<path d="M127.245 34.293H0V34.714H127.245V34.293Z" fill="#8F8183"/>
<path d="M2.98074 40.5915C3.11623 40.7154 3.22276 40.8677 3.29251 41.0375C3.36225 41.2073 3.39346 41.3905 3.38415 41.5738C3.39134 41.7595 3.35905 41.9446 3.28951 42.117C3.21997 42.2893 3.11479 42.445 2.98074 42.5737C2.66831 42.8372 2.26585 42.9692 1.85806 42.942H1.01611V44.0471H0.279297V40.2582H1.85806C2.25941 40.2374 2.65575 40.3551 2.98074 40.5915ZM2.45441 42.1176C2.52665 42.0503 2.58439 41.9688 2.62378 41.8783C2.66318 41.7878 2.68353 41.6901 2.68353 41.5914C2.68353 41.4926 2.66318 41.3949 2.62378 41.3044C2.58439 41.2139 2.52665 41.1324 2.45441 41.0651C2.27218 40.9319 2.04776 40.8696 1.82295 40.8897H1.01611V42.293H1.82295C2.04776 42.3131 2.27218 42.2508 2.45441 42.1176Z" fill="#8F8183"/>
<path d="M7.59456 44.0461L6.92798 42.9234H5.92822V44.0285H5.19141V40.2396H6.80529C7.21255 40.2147 7.61557 40.3326 7.94531 40.5729C8.08385 40.6943 8.19243 40.8462 8.26243 41.0167C8.33243 41.1871 8.36212 41.3714 8.34894 41.5552C8.36005 41.8201 8.29275 42.0825 8.15579 42.3095C8.02505 42.5241 7.82812 42.6903 7.59456 42.7831L8.43652 44.0285L7.59456 44.0461ZM5.92822 42.2919H6.80529C7.0298 42.3089 7.25317 42.2469 7.43675 42.1165C7.56992 41.9737 7.64381 41.7856 7.64381 41.5903C7.64381 41.395 7.56992 41.2069 7.43675 41.064C7.25317 40.9337 7.0298 40.8716 6.80529 40.8886H5.92822V42.2919Z" fill="#8F8183"/>
<path d="M13.1557 40.4666C13.4652 40.6226 13.7214 40.8667 13.8923 41.1683C14.0647 41.4669 14.1556 41.8057 14.1556 42.1506C14.1556 42.4954 14.0647 42.8342 13.8923 43.1329C13.7163 43.4349 13.4618 43.6835 13.1557 43.8521C12.8374 44.0212 12.4809 44.1058 12.1206 44.0977C11.7598 44.1099 11.4025 44.0251 11.0857 43.8521C10.7795 43.6835 10.5248 43.4349 10.3489 43.1329C10.1654 42.8381 10.0684 42.4978 10.0684 42.1506C10.0684 41.8034 10.1654 41.4631 10.3489 41.1683C10.5197 40.8667 10.7762 40.6226 11.0857 40.4666C11.4008 40.2875 11.7582 40.1966 12.1206 40.2035C12.4824 40.2008 12.839 40.2914 13.1557 40.4666ZM11.4015 41.0279C11.2068 41.1441 11.0441 41.3069 10.9279 41.5016C10.8065 41.6958 10.7455 41.9216 10.7525 42.1506C10.7485 42.3791 10.8093 42.6042 10.9279 42.7996C11.0388 42.9983 11.2028 43.1623 11.4015 43.2732C11.5977 43.3901 11.8222 43.4508 12.0505 43.4486C12.2795 43.4557 12.5053 43.3946 12.6996 43.2732C12.8983 43.1623 13.0623 42.9983 13.1732 42.7996C13.2841 42.601 13.3443 42.378 13.3486 42.1506C13.3465 41.9228 13.2862 41.6994 13.1732 41.5016C13.057 41.3069 12.8942 41.1441 12.6996 41.0279C12.5018 40.915 12.2783 40.8546 12.0505 40.8525C11.8234 40.8589 11.601 40.919 11.4015 41.0279Z" fill="#8F8183"/>
<path d="M16.0332 40.2559H16.8576L18.1382 42.6941L19.4011 40.2559H20.2431V44.0448H19.559V41.3259L18.3662 43.6589H17.8926L16.6998 41.3259V44.0448H16.0332V40.2559Z" fill="#8F8183"/>
<path d="M23.1196 40.2559H22.3828V44.0448H23.1196V40.2559Z" fill="#8F8183"/>
<path d="M27.0833 40.958C26.9088 40.8944 26.7254 40.8588 26.5397 40.8528C26.3921 40.8459 26.2457 40.8825 26.1187 40.958C26.0722 40.9848 26.0333 41.0231 26.0056 41.0691C25.978 41.1151 25.9624 41.1675 25.9607 41.2211C25.9589 41.2699 25.9674 41.3185 25.9855 41.3638C26.0036 41.4091 26.0311 41.4501 26.066 41.4843C26.1458 41.5624 26.2416 41.6222 26.3467 41.6597L26.7853 41.8175C27.004 41.8685 27.2159 41.945 27.4167 42.0456C27.598 42.1177 27.7524 42.244 27.8591 42.4073C27.9659 42.5706 28.0197 42.7628 28.0131 42.9577C28.022 43.1759 27.9605 43.3912 27.8377 43.5717C27.7022 43.7474 27.5197 43.8812 27.3114 43.9576C27.0709 44.051 26.8152 44.0986 26.5572 44.0979C26.2578 44.0981 25.9607 44.0446 25.6802 43.9401C25.4034 43.8344 25.1479 43.6799 24.9258 43.484L25.2416 42.87C25.4326 43.046 25.6521 43.1884 25.8906 43.291C26.1003 43.387 26.3268 43.4406 26.5572 43.4489C26.729 43.4524 26.8983 43.41 27.0482 43.3261C27.0991 43.2898 27.1412 43.2426 27.1716 43.188C27.2019 43.1334 27.2198 43.0727 27.2238 43.0104C27.2228 42.9074 27.1854 42.808 27.1185 42.7297C27.0406 42.653 26.9437 42.5985 26.8377 42.5718L26.3992 42.414L25.7502 42.2034C25.5876 42.1238 25.444 42.0102 25.3292 41.8702C25.209 41.7016 25.1475 41.4983 25.1538 41.2913C25.1582 41.0859 25.2189 40.8857 25.3292 40.7125C25.4677 40.5473 25.6416 40.4154 25.838 40.3265C26.0796 40.2391 26.3353 40.1975 26.5921 40.2037C26.8414 40.2042 27.0895 40.2396 27.3289 40.309C27.5587 40.3762 27.7773 40.4767 27.978 40.6072L27.6797 41.2387C27.4934 41.1205 27.2931 41.0262 27.0833 40.958Z" fill="#8F8183"/>
<path d="M29.9258 40.2559H32.75V40.8873H30.6625V41.817H32.5395V42.4485H30.6625V43.4133H32.8026V44.0448H29.9258V40.2559Z" fill="#8F8183"/>
<path d="M36.5736 40.958C36.399 40.8944 36.2154 40.8588 36.0297 40.8528C35.8821 40.8459 35.7357 40.8825 35.6087 40.958C35.5622 40.9848 35.5233 41.0231 35.4956 41.0691C35.468 41.1151 35.4527 41.1675 35.4509 41.2211C35.4492 41.2699 35.4576 41.3185 35.4757 41.3638C35.4939 41.4091 35.5214 41.4501 35.5562 41.4843C35.6388 41.5588 35.7336 41.6181 35.8368 41.6597L36.2753 41.8175C36.494 41.8685 36.7059 41.945 36.9068 42.0456C37.0808 42.1142 37.2325 42.2296 37.3453 42.3789C37.4632 42.5486 37.5247 42.7511 37.5209 42.9577C37.5247 43.1779 37.4568 43.3933 37.3277 43.5717C37.196 43.7511 37.0124 43.8858 36.8016 43.9576C36.5611 44.051 36.3052 44.0986 36.0472 44.0979C35.7478 44.0981 35.4508 44.0446 35.1702 43.9401C34.8955 43.8304 34.6408 43.6763 34.416 43.484L34.7316 42.87C34.9226 43.046 35.1421 43.1884 35.3807 43.291C35.5903 43.387 35.8168 43.4406 36.0472 43.4489C36.219 43.4524 36.3886 43.41 36.5385 43.3261C36.5923 43.293 36.6368 43.2465 36.6676 43.1912C36.6983 43.1359 36.7142 43.0736 36.7138 43.0104C36.7128 42.9074 36.6756 42.808 36.6087 42.7297C36.5308 42.653 36.4339 42.5985 36.328 42.5718L35.8894 42.414L35.2404 42.2034C35.0778 42.1238 34.9343 42.0102 34.8194 41.8702C34.6993 41.7016 34.6377 41.4983 34.6441 41.2913C34.6465 41.083 34.7139 40.8806 34.837 40.7125C34.9653 40.5442 35.1344 40.4114 35.3282 40.3265C35.5698 40.2391 35.8255 40.1975 36.0824 40.2037C36.3317 40.2042 36.5797 40.2396 36.8192 40.309C37.0503 40.3725 37.2695 40.4733 37.4682 40.6072L37.1875 41.2387C36.9934 41.1236 36.7876 41.0295 36.5736 40.958Z" fill="#8F8183"/>
<path d="M41.9766 40.2559H42.8185L44.0815 42.6941L45.3445 40.2559H46.1865V44.0448H45.5199V41.3259L44.3271 43.6589H43.8534L42.6431 41.3259V44.0448H41.9766V40.2559Z" fill="#8F8183"/>
<path d="M51.1865 44.0448L50.8358 43.2554H49.0465L48.7134 44.0448H47.959L49.7131 40.2559H50.4675L52.2216 44.0448H51.1865ZM49.2219 42.624H50.5726L49.906 41.0277L49.2219 42.624Z" fill="#8F8183"/>
<path d="M56.2718 40.5018C56.5664 40.6563 56.8147 40.8864 56.9911 41.1684C57.1544 41.4699 57.2389 41.8078 57.2367 42.1507C57.2725 42.5085 57.1974 42.8687 57.0217 43.1824C56.846 43.4962 56.5781 43.7484 56.2543 43.9048C55.9331 44.0643 55.5778 44.1426 55.2194 44.1328H53.6406V40.3439H55.2369C55.5969 40.3396 55.9522 40.4239 56.2718 40.5895M55.886 43.3435C56.0749 43.2335 56.2321 43.0763 56.3421 42.8874C56.4356 42.6901 56.4835 42.4743 56.4823 42.2559C56.4863 42.024 56.4321 41.7948 56.3245 41.5894C56.2185 41.4019 56.0599 41.2494 55.8684 41.1508C55.6747 41.0454 55.4574 40.9911 55.2369 40.993H54.3072V43.5014H55.1843C55.4052 43.5074 55.6236 43.4528 55.8157 43.3435" fill="#8F8183"/>
<path d="M59.0977 40.2559H61.9043V40.8873H59.8344V41.817H61.6938V42.4485H59.8344V43.4133H61.9745V44.0448H59.0977V40.2559Z" fill="#8F8183"/>
<path d="M64.3411 43.4317C64.3773 43.4685 64.4054 43.5125 64.4235 43.5609C64.4417 43.6092 64.4496 43.6608 64.4465 43.7124C64.4487 43.816 64.4109 43.9165 64.3411 43.993C64.2697 44.0596 64.1756 44.0967 64.0779 44.0967C63.9803 44.0967 63.8864 44.0596 63.815 43.993C63.748 43.9148 63.7107 43.8154 63.7096 43.7124C63.7065 43.6608 63.7144 43.6092 63.7326 43.5609C63.7507 43.5125 63.7788 43.4685 63.815 43.4317C63.8864 43.3652 63.9803 43.3281 64.0779 43.3281C64.1756 43.3281 64.2697 43.3652 64.3411 43.4317Z" fill="#8F8183"/>
<path d="M69.0784 40.5915C69.2117 40.7162 69.3155 40.8691 69.3822 41.0391C69.449 41.209 69.477 41.3917 69.4642 41.5738C69.4748 41.7583 69.4458 41.943 69.3792 42.1154C69.3127 42.2879 69.2102 42.4441 69.0784 42.5737C68.7651 42.8355 68.3633 42.9674 67.9557 42.942H67.1138V44.0471H66.377V40.2582H67.9557C68.3571 40.2374 68.7534 40.3551 69.0784 40.5915ZM68.5521 42.1176C68.6243 42.0503 68.6818 41.9688 68.7212 41.8783C68.7606 41.7878 68.781 41.6901 68.781 41.5914C68.781 41.4926 68.7606 41.3949 68.7212 41.3044C68.6818 41.2139 68.6243 41.1324 68.5521 41.0651C68.3685 40.9348 68.1451 40.8727 67.9206 40.8897H67.1138V42.293H67.9206C68.1451 42.31 68.3685 42.248 68.5521 42.1176Z" fill="#8F8183"/>
<path d="M73.6903 44.0452L73.0237 42.9225H72.0237V44.0276H71.2871V40.2387H72.8832C73.2964 40.2096 73.7065 40.3277 74.041 40.572C74.1765 40.6959 74.283 40.8482 74.3528 41.018C74.4225 41.1878 74.4537 41.371 74.4444 41.5543C74.4472 41.8183 74.3807 42.0784 74.2515 42.3086C74.1207 42.5232 73.9238 42.6894 73.6903 42.7822L74.5322 44.0276L73.6903 44.0452ZM71.9361 42.291H72.7956C73.0256 42.3078 73.2544 42.246 73.4447 42.1156C73.5818 41.9748 73.6586 41.786 73.6586 41.5894C73.6586 41.3928 73.5818 41.204 73.4447 41.0631C73.2544 40.9328 73.0256 40.871 72.7956 40.8877H71.9361V42.291Z" fill="#8F8183"/>
<path d="M79.2514 40.467C79.5609 40.623 79.8173 40.8671 79.9882 41.1687C80.1606 41.4673 80.2513 41.8061 80.2513 42.151C80.2513 42.4959 80.1606 42.8346 79.9882 43.1333C79.8123 43.4353 79.5575 43.6839 79.2514 43.8525C78.9276 44.0238 78.5651 44.1084 78.1989 44.0981C77.8386 44.1062 77.4823 44.0216 77.164 43.8525C76.8579 43.6839 76.6031 43.4353 76.4272 43.1333C76.2548 42.8346 76.1641 42.4959 76.1641 42.151C76.1641 41.8061 76.2548 41.4673 76.4272 41.1687C76.5981 40.8671 76.8545 40.623 77.164 40.467C77.485 40.2951 77.8435 40.2051 78.2077 40.2051C78.5719 40.2051 78.9303 40.2951 79.2514 40.467ZM77.4972 41.0283C77.2948 41.1343 77.1296 41.2996 77.0236 41.502C76.9022 41.6962 76.8412 41.9221 76.8482 42.151C76.8442 42.3796 76.905 42.6046 77.0236 42.8C77.1345 42.9988 77.2985 43.1627 77.4972 43.2736C77.6927 43.3922 77.9177 43.4531 78.1462 43.4491C78.3746 43.4512 78.5991 43.3905 78.7953 43.2736C78.9925 43.1666 79.1518 43.0012 79.2514 42.8C79.3699 42.6046 79.4307 42.3796 79.4267 42.151C79.4337 41.9221 79.3727 41.6962 79.2514 41.502C79.1467 41.3045 78.9887 41.1404 78.7953 41.0283C78.5958 40.9194 78.3734 40.8593 78.1462 40.8529C77.9188 40.8573 77.6959 40.9175 77.4972 41.0283Z" fill="#8F8183"/>
<path d="M82.1113 40.2559H82.9533L84.2163 42.6941L85.4793 40.2559H86.3213V44.0448H85.6547V41.3259L84.4619 43.6589H83.9883L82.7779 41.3259V44.0448H82.1113V40.2559Z" fill="#8F8183"/>
<path d="M89.2153 40.2559H88.4785V44.0448H89.2153V40.2559Z" fill="#8F8183"/>
<path d="M93.179 40.9584C93.0045 40.8947 92.8208 40.8592 92.6352 40.8531C92.4875 40.8462 92.3412 40.8828 92.2142 40.9584C92.1677 40.9852 92.1287 41.0234 92.1011 41.0694C92.0735 41.1155 92.0581 41.1678 92.0564 41.2215C92.0546 41.2702 92.0631 41.3188 92.0812 41.3641C92.0993 41.4094 92.1266 41.4505 92.1615 41.4846C92.2347 41.5623 92.3248 41.6223 92.4247 41.66L92.8808 41.8179C93.0986 41.8717 93.3102 41.9482 93.5122 42.0459C93.6935 42.1181 93.8481 42.2444 93.9548 42.4076C94.0616 42.5709 94.1152 42.7631 94.1086 42.9581C94.121 43.1794 94.0524 43.3976 93.9156 43.572C93.787 43.7472 93.6104 43.8812 93.4071 43.9579C93.161 44.0531 92.899 44.1007 92.6352 44.0983C92.3358 44.0969 92.0391 44.0435 91.7581 43.9404C91.4888 43.8304 91.24 43.6763 91.0215 43.4843L91.3196 42.8704C91.5197 43.043 91.7443 43.1849 91.9861 43.2914C92.1945 43.3911 92.4218 43.4449 92.6527 43.4492C92.8244 43.4528 92.9941 43.4104 93.1439 43.3264C93.1948 43.2901 93.2369 43.243 93.2673 43.1884C93.2976 43.1337 93.3153 43.0731 93.3193 43.0107C93.3183 42.9077 93.2811 42.8083 93.2142 42.73C93.1309 42.6609 93.0358 42.6074 92.9334 42.5722L92.4773 42.4143L91.8459 42.2038C91.6833 42.1242 91.5397 42.0105 91.4249 41.8705C91.2967 41.706 91.2343 41.4997 91.2495 41.2917C91.2457 41.0851 91.307 40.8825 91.4249 40.7128C91.5634 40.5477 91.7371 40.4158 91.9335 40.3269C92.1746 40.2378 92.4308 40.1961 92.6878 40.2041C92.9371 40.2045 93.1852 40.24 93.4246 40.3093C93.6544 40.3766 93.873 40.477 94.0737 40.6075L93.7754 41.239C93.5873 41.1242 93.3874 41.0301 93.179 40.9584Z" fill="#8F8183"/>
<path d="M96.0215 40.2559H98.8281V40.8873H96.7582V41.817H98.6176V42.4485H96.7582V43.4133H98.8982V44.0448H96.0215V40.2559Z" fill="#8F8183"/>
<path d="M102.669 40.9584C102.495 40.8947 102.311 40.8592 102.126 40.8531C101.978 40.8462 101.832 40.8828 101.705 40.9584C101.658 40.9852 101.619 41.0234 101.592 41.0694C101.564 41.1155 101.549 41.1678 101.547 41.2215C101.545 41.2702 101.554 41.3188 101.572 41.3641C101.59 41.4094 101.617 41.4505 101.652 41.4846C101.725 41.5623 101.815 41.6223 101.915 41.66L102.371 41.8179C102.589 41.8717 102.801 41.9482 103.003 42.0459C103.184 42.1181 103.339 42.2444 103.445 42.4076C103.552 42.5709 103.606 42.7631 103.599 42.9581C103.611 43.1794 103.543 43.3976 103.406 43.572C103.277 43.7472 103.101 43.8812 102.897 43.9579C102.651 44.0531 102.389 44.1007 102.126 44.0983C101.826 44.0969 101.53 44.0435 101.249 43.9404C100.979 43.8304 100.73 43.6763 100.512 43.4843L100.81 42.8704C101.01 43.043 101.235 43.1849 101.477 43.2914C101.685 43.3911 101.912 43.4449 102.143 43.4492C102.315 43.4528 102.484 43.4104 102.634 43.3264C102.685 43.2901 102.727 43.243 102.757 43.1884C102.788 43.1337 102.806 43.0731 102.81 43.0107C102.809 42.9077 102.771 42.8083 102.704 42.73C102.621 42.6609 102.526 42.6074 102.424 42.5722L101.968 42.4143L101.336 42.2038C101.174 42.1242 101.03 42.0105 100.915 41.8705C100.787 41.706 100.725 41.4997 100.74 41.2917C100.736 41.0851 100.797 40.8825 100.915 40.7128C101.054 40.5477 101.228 40.4158 101.424 40.3269C101.665 40.2378 101.921 40.1961 102.178 40.2041C102.428 40.2045 102.675 40.24 102.915 40.3093C103.145 40.3766 103.363 40.477 103.564 40.6075L103.266 41.239C103.078 41.1242 102.878 41.0301 102.669 40.9584Z" fill="#8F8183"/>
<path d="M111.493 44.0448H110.616L109.405 42.4134L108.809 43.08V44.0448H108.072V40.2559H108.809V42.1503L110.528 40.2559H111.405L109.932 41.8521L111.493 44.0448Z" fill="#8F8183"/>
<path d="M113.264 40.2559H116.07V40.8873H114V41.817H115.86V42.4485H114V43.4133H116.14V44.0448H113.264V40.2559Z" fill="#8F8183"/>
<path d="M120.789 40.5915C120.925 40.7154 121.031 40.8677 121.101 41.0375C121.171 41.2073 121.202 41.3905 121.193 41.5738C121.2 41.7595 121.168 41.9446 121.098 42.117C121.029 42.2893 120.923 42.445 120.789 42.5737C120.477 42.8372 120.074 42.9692 119.667 42.942H118.825V44.0471H118.088V40.2582H119.667C120.068 40.2374 120.464 40.3551 120.789 40.5915ZM120.263 42.1176C120.335 42.0503 120.393 41.9688 120.432 41.8783C120.472 41.7878 120.492 41.6901 120.492 41.5914C120.492 41.4926 120.472 41.3949 120.432 41.3044C120.393 41.2139 120.335 41.1324 120.263 41.0651C120.081 40.9319 119.856 40.8696 119.632 40.8897H118.825V42.293H119.632C119.856 42.3131 120.081 42.2508 120.263 42.1176Z" fill="#8F8183"/>
<path d="M122.578 40.2559H125.718V40.8873H124.508V44.0448H123.771V40.8873H122.578V40.2559Z" fill="#8F8183"/>
<path d="M127.859 43.4341C127.895 43.4709 127.923 43.5148 127.941 43.5632C127.959 43.6115 127.967 43.6632 127.964 43.7147C127.966 43.8183 127.929 43.9188 127.859 43.9954C127.822 44.0316 127.778 44.0597 127.729 44.0778C127.681 44.096 127.63 44.1037 127.578 44.1006C127.529 44.1023 127.481 44.0939 127.435 44.0758C127.39 44.0576 127.349 44.0302 127.315 43.9954C127.248 43.9171 127.211 43.8177 127.21 43.7147C127.207 43.6632 127.214 43.6115 127.232 43.5632C127.25 43.5148 127.279 43.4709 127.315 43.4341C127.349 43.3992 127.39 43.3718 127.435 43.3537C127.481 43.3356 127.529 43.3271 127.578 43.3288C127.63 43.3257 127.681 43.3335 127.729 43.3516C127.778 43.3697 127.822 43.3978 127.859 43.4341Z" fill="#8F8183"/>
<path d="M45.2218 0.0351562H44.8008V28.8205H45.2218V0.0351562Z" fill="#8F8183"/>
</svg>
